<svg width="50mm" height="10mm" version="1.1" viewBox="0 0 50 10" xmlns="http://www.w3.org/2000/svg"><g transform="translate(-98.757 -56.431)"><g stroke-width=".26458" aria-label="tear•down"><path d="m100.01 64.164q0-0.03704 0-0.08996t5e-3 -0.14817q0.0106-0.10054 0.0265-0.25929 0.0212-0.16404 0.0529-0.42862l0.28046-2.2437h-0.43921q-0.10054 0-0.16933-0.0635-0.06879-0.06879-0.06879-0.20108 0-0.0053 0.01058-0.08996 0.01058-0.08996 0.02117-0.18521 0.01058-0.10054 0.02117-0.18521 0.01058-0.08467 0.01058-0.09525l0.01587-0.14288 0.83079-0.16933 0.46038-1.3388q0.0794-0.254 0.35983-0.254h0.889l-0.20108 1.6034h1.2277l-0.13758 1.1218h-1.2277l-0.26458 2.1537q-0.0265 0.21696-0.0423 0.34396-0.0106 0.12171-0.0212 0.1905-5e-3 0.0635-0.0106 0.08996 0 0.02117 0 0.02646 0 0.15346 0.0688 0.25929 0.0741 0.10054 0.22754 0.10054 0.0847 0 0.13758-0.01588 0.0582-0.02117 0.10055-0.04233 0.0423-0.02646 0.0794-0.04233 0.037-0.02117 0.0847-0.02117 0.0741 0 0.11112 0.03704 0.037 0.03175 0.0688 0.10583l0.35984 0.77788q-0.32809 0.23812-0.70379 0.35983-0.37571 0.11642-0.75671 0.11642-0.3175 0-0.5715-0.08467-0.254-0.08996-0.43922-0.254-0.17991-0.16933-0.28575-0.40217-0.10054-0.23283-0.11112-0.52917z"/><path d="m108.19 61.211q0 0.37571-0.14817 0.68792-0.14816 0.31221-0.51858 0.55562-0.36512 0.23812-0.98954 0.40746-0.61913 0.16933-1.561 0.26458 0.0106 0.56092 0.24341 0.82021 0.23813 0.25929 0.6985 0.25929 0.21696 0 0.37571-0.03704t0.27517-0.09525q0.12171-0.05821 0.21696-0.12171 0.0952-0.0635 0.17991-0.12171 0.09-0.05821 0.18521-0.09525 0.0953-0.03704 0.21696-0.03704 0.0794 0 0.15346 0.04233 0.0741 0.03704 0.13229 0.10054l0.42333 0.49212q-0.29104 0.28575-0.5715 0.49742-0.27516 0.20638-0.5715 0.34396-0.29104 0.13229-0.62441 0.19579-0.32809 0.0635-0.71967 0.0635-0.48683 0-0.89429-0.16404-0.40746-0.16933-0.70379-0.47096-0.29104-0.30692-0.45509-0.73554-0.15875-0.42862-0.15875-0.9525 0-0.43921 0.0953-0.85725 0.10055-0.41804 0.28046-0.78317 0.18521-0.37042 0.44979-0.67733 0.26459-0.31221 0.59267-0.53446 0.33338-0.22225 0.72496-0.34396 0.39687-0.127 0.84137-0.127 0.43921 0 0.77788 0.127 0.34396 0.127 0.57679 0.33338 0.23283 0.20108 0.35454 0.45508t0.12171 0.508zm-1.9262-0.3175q-0.40745 0-0.71437 0.32808-0.30692 0.32279-0.46038 0.889 0.5133-0.07937 0.8308-0.16404 0.3175-0.08996 0.49212-0.1905 0.17463-0.10583 0.23283-0.22225 0.0635-0.12171 0.0635-0.25929 0-0.13758-0.10583-0.25929t-0.33867-0.12171z"/><path d="m113.03 65.35h-0.87841q-0.15346 0-0.2593-0.03704-0.10054-0.04233-0.16404-0.11112-0.0582-0.06879-0.0847-0.16404-0.0212-0.09525-0.0212-0.20638v-0.39158q-0.33867 0.46567-0.75142 0.73025t-0.91016 0.26458q-0.29634 0-0.5715-0.11642-0.27517-0.12171-0.48684-0.35983-0.21166-0.24342-0.33866-0.61383-0.127-0.37571-0.127-0.88371 0-0.74612 0.26987-1.4129 0.27517-0.67204 0.762-1.1748 0.49213-0.50271 1.1642-0.79904 0.67204-0.29633 1.4764-0.29633 0.39159 0 0.79375 0.05292 0.40217 0.05292 0.79375 0.1905zm-2.413-1.2118q0.17992 0 0.34925-0.13229 0.16934-0.13758 0.3175-0.37042 0.15346-0.23283 0.28046-0.54504t0.21696-0.66675l0.1905-1.5187h-0.0952q-0.40217 0-0.73554 0.17992-0.32809 0.17992-0.56621 0.49212-0.23813 0.30692-0.37042 0.71967-0.127 0.40746-0.127 0.87312 0 0.26458 0.0423 0.44979 0.0423 0.18521 0.11112 0.30162 0.0741 0.11112 0.16933 0.16404 0.10055 0.05292 0.21696 0.05292z"/><path d="m114.07 65.35 0.66675-5.4875h0.84667q0.254 0 0.39687 0.12171 0.14288 0.11642 0.14288 0.38629v0.62442q0.3175-0.56092 0.68791-0.86254 0.37042-0.30162 0.7673-0.30162 0.22225 0 0.4392 0.10054l-0.29633 1.5187q-0.26987-0.11642-0.51329-0.11642-0.40746 0-0.72496 0.37042-0.31221 0.36512-0.508 1.18l-0.29633 2.4659z"/><path d="m118.91 62.312q0-0.64079 0.44442-1.08 0.44958-0.44442 1.1007-0.44442 0.64079 0 1.08 0.44442 0.44442 0.43925 0.44442 1.08 0 0.64596-0.44442 1.0904-0.44442 0.44442-1.0904 0.44442-0.64596 0-1.0904-0.44442-0.44442-0.44442-0.44442-1.0904z" fill="#6aa84f"/><path d="m127.09 65.35q-0.15346 0-0.25929-0.03704-0.10054-0.04233-0.16404-0.11112-0.0582-0.06879-0.0847-0.16404-0.0212-0.09525-0.0212-0.20638v-0.46038q-0.3757 0.49742-0.83079 0.78317-0.45508 0.28046-0.96837 0.28046-0.33867 0-0.61913-0.11642-0.28046-0.12171-0.48683-0.37571-0.20108-0.254-0.3175-0.64558-0.11113-0.39688-0.11113-0.94721 0-0.47625 0.10055-0.92604 0.10054-0.45508 0.28045-0.85196 0.17992-0.39688 0.42863-0.72496 0.24871-0.33338 0.54504-0.56621 0.30163-0.23812 0.635-0.37042 0.33338-0.13229 0.68792-0.13229 0.33866 0 0.60854 0.11642 0.27517 0.11112 0.48154 0.29633l0.34925-2.7622h1.6087l-0.98425 7.9216zm-1.6722-1.1642q0.16934 0 0.34925-0.127 0.18521-0.127 0.35455-0.34925 0.17462-0.22225 0.32279-0.51858 0.14816-0.30162 0.254-0.64558l0.16933-1.3335q-0.15346-0.12171-0.34396-0.17462-0.18521-0.05292-0.35454-0.05292-0.28575 0-0.52917 0.1905-0.23812 0.1905-0.41275 0.50271-0.17462 0.30692-0.27516 0.70379-0.0953 0.39688-0.0953 0.80962 0 0.52388 0.15346 0.762 0.15345 0.23283 0.40745 0.23283z"/><path d="m131.36 64.217q0.27517 0 0.49213-0.16404 0.21696-0.16933 0.36512-0.45508 0.15346-0.29104 0.23284-0.67204 0.0847-0.38629 0.0847-0.82021 0-0.59796-0.16404-0.85196-0.15875-0.25929-0.52387-0.25929-0.27517 0-0.49213 0.16933-0.21696 0.16404-0.37042 0.44979-0.14816 0.28575-0.23283 0.67204-0.0794 0.38629-0.0794 0.82021 0 0.58738 0.15875 0.85196 0.16404 0.25929 0.52916 0.25929zm-0.14816 1.2171q-0.46038 0-0.86255-0.15346-0.39687-0.15346-0.6932-0.4445-0.29105-0.29633-0.46038-0.72496-0.16404-0.43392-0.16404-0.99483 0-0.73025 0.23812-1.3388 0.24342-0.61383 0.65088-1.0583t0.94192-0.69321q0.53975-0.24871 1.1324-0.24871 0.46038 0 0.85725 0.15346 0.39688 0.15346 0.68792 0.44979 0.29633 0.29104 0.46567 0.72496 0.16933 0.42862 0.16933 0.98954 0 0.71967-0.24342 1.3335-0.23812 0.60854-0.64558 1.0583-0.40746 0.4445-0.94721 0.6985-0.53446 0.24871-1.1271 0.24871z"/><path d="m134.73 59.862h1.2594q0.15875 0 0.26987 0.07937 0.11113 0.07938 0.12171 0.20638l0.15875 2.4606q0 0.02117 0 0.04233 5e-3 0.01588 5e-3 0.03704 0.0159 0.254 0.0265 0.49212t0.0159 0.47625q0.0953-0.254 0.20109-0.51329 0.11112-0.25929 0.21696-0.53446l0.92075-2.4659q0.0423-0.12171 0.16404-0.20108 0.127-0.08467 0.26987-0.08467h0.70909q0.16933 0 0.26987 0.08467 0.10583 0.07938 0.12171 0.20108l0.3175 2.4659q0.037 0.26988 0.0688 0.52917 0.037 0.25929 0.0635 0.51329 0.0741-0.254 0.15875-0.508 0.0847-0.254 0.17463-0.53446l0.77258-2.4606q0.0423-0.12171 0.15875-0.20108 0.12171-0.08467 0.26458-0.08467h1.2065l-2.2331 5.4875h-1.2806q-0.0953 0-0.15875-0.0635-0.0582-0.0635-0.0847-0.21167l-0.40217-2.7358q-0.0159-0.11642-0.0318-0.22754-0.0106-0.11642-0.0212-0.23283-0.0423 0.12171-0.09 0.23812-0.0476 0.11642-0.09 0.23283l-1.0478 2.7252q-0.11113 0.27517-0.34925 0.27517h-1.2277z"/><path d="m145.74 65.35 0.41275-3.4872q0.0106-0.08467 0.0159-0.15346 5e-3 -0.07408 5e-3 -0.13758 0-0.28046-0.10054-0.38629-0.0953-0.11112-0.29104-0.11112-0.17992 0-0.37571 0.11112t-0.37571 0.31221q-0.17462 0.20108-0.32279 0.49212-0.14816 0.28575-0.23283 0.635l-0.30163 2.7252h-1.6404l0.65616-5.4875h0.84667q0.254 0 0.39688 0.12171 0.14287 0.11642 0.14287 0.38629v0.43921q0.39688-0.52917 0.86783-0.77788 0.47096-0.254 0.97367-0.254 0.30692 0 0.56092 0.11112 0.25929 0.11112 0.4445 0.32808 0.18521 0.21167 0.29104 0.52388 0.10583 0.31221 0.10583 0.71967 0 0.09525-0.0106 0.19579-5e-3 0.10054-0.0159 0.20638l-0.41275 3.4872z"/></g></g></svg>
