<?xml version="1.0" encoding="UTF-8" standalone="no"?>
<!-- Created with Inkscape (http://www.inkscape.org/) -->

<svg
   xmlns:dc="http://purl.org/dc/elements/1.1/"
   xmlns:cc="http://creativecommons.org/ns#"
   xmlns:rdf="http://www.w3.org/1999/02/22-rdf-syntax-ns#"
   xmlns:svg="http://www.w3.org/2000/svg"
   xmlns="http://www.w3.org/2000/svg"
   xmlns:sodipodi="http://sodipodi.sourceforge.net/DTD/sodipodi-0.dtd"
   xmlns:inkscape="http://www.inkscape.org/namespaces/inkscape"
   width="16mm"
   height="16mm"
   viewBox="0 0 16 16"
   version="1.1"
   id="svg8"
   inkscape:version="0.92.3 (unknown)"
   sodipodi:docname="t-g.svg">
  <defs
     id="defs2" />
  <sodipodi:namedview
     id="base"
     pagecolor="#ffffff"
     bordercolor="#666666"
     borderopacity="1.0"
     inkscape:pageopacity="0.0"
     inkscape:pageshadow="2"
     inkscape:zoom="5.6"
     inkscape:cx="45.524502"
     inkscape:cy="12.753616"
     inkscape:document-units="mm"
     inkscape:current-layer="layer2"
     showgrid="true"
     showguides="false"
     inkscape:window-width="1865"
     inkscape:window-height="1025"
     inkscape:window-x="55"
     inkscape:window-y="27"
     inkscape:window-maximized="1"
     fit-margin-top="0"
     fit-margin-left="0"
     fit-margin-right="0"
     fit-margin-bottom="0">
    <inkscape:grid
       type="xygrid"
       id="grid828"
       units="mm"
       spacingx="0.5"
       spacingy="0.5" />
  </sodipodi:namedview>
  <metadata
     id="metadata5">
    <rdf:RDF>
      <cc:Work
         rdf:about="">
        <dc:format>image/svg+xml</dc:format>
        <dc:type
           rdf:resource="http://purl.org/dc/dcmitype/StillImage" />
        <dc:title></dc:title>
      </cc:Work>
    </rdf:RDF>
  </metadata>
  <g
     inkscape:groupmode="layer"
     id="layer2"
     inkscape:label="bg"
     transform="translate(0,1)">
    <rect
       style="fill:#ffffff;fill-opacity:1;stroke:none;stroke-width:1.20000017;stroke-miterlimit:4;stroke-dasharray:none;stroke-dashoffset:0;stroke-opacity:1"
       id="rect826"
       width="15"
       height="15.000001"
       x="0.52916664"
       y="-0.52916759"
       ry="2.500001"
       rx="2.5" />
  </g>
  <g
     inkscape:label="t-g"
     inkscape:groupmode="layer"
     id="layer1"
     transform="translate(-115.04186,-49.434209)">
    <g
       aria-label="tear•down"
       style="font-style:normal;font-weight:normal;font-size:10.58333302px;line-height:1.25;font-family:sans-serif;letter-spacing:0px;word-spacing:0px;fill:#000000;fill-opacity:1;stroke:none;stroke-width:0.26458332"
       id="text817"
       transform="translate(1.3390717,-4.0260217)">
      <path
         d="m 115.35435,64.164207 q 0,-0.03704 0,-0.08996 0,-0.05292 0.005,-0.148167 0.0106,-0.100541 0.0265,-0.259291 0.0212,-0.164042 0.0529,-0.428625 l 0.28046,-2.243667 H 115.28 q -0.10054,0 -0.16934,-0.0635 -0.0688,-0.06879 -0.0688,-0.201083 0,-0.0053 0.0106,-0.08996 0.0106,-0.08996 0.0212,-0.185209 0.0106,-0.100541 0.0212,-0.185208 0.0106,-0.08467 0.0106,-0.09525 l 0.0159,-0.142875 0.8308,-0.169333 0.46038,-1.338792 q 0.0794,-0.254 0.35983,-0.254 h 0.889 l -0.20108,1.603375 h 1.22766 l -0.13758,1.121833 h -1.22767 l -0.26458,2.153708 q -0.0265,0.216959 -0.0423,0.343959 -0.0106,0.121708 -0.0212,0.1905 -0.005,0.0635 -0.0106,0.08996 0,0.02117 0,0.02646 0,0.153459 0.0688,0.259292 0.0741,0.100542 0.22754,0.100542 0.0847,0 0.13758,-0.01588 0.0582,-0.02117 0.10055,-0.04233 0.0423,-0.02646 0.0794,-0.04233 0.037,-0.02117 0.0847,-0.02117 0.0741,0 0.11112,0.03704 0.037,0.03175 0.0688,0.105833 l 0.35984,0.777875 q -0.32809,0.238125 -0.70379,0.359834 -0.37571,0.116416 -0.75671,0.116416 -0.3175,0 -0.5715,-0.08467 -0.254,-0.08996 -0.43922,-0.254 -0.17991,-0.169334 -0.28575,-0.402167 -0.10054,-0.232833 -0.11112,-0.529167 z"
         style="font-style:italic;font-variant:normal;font-weight:900;font-stretch:normal;font-family:Lato;-inkscape-font-specification:'Lato Heavy Italic'"
         id="path862"
         inkscape:connector-curvature="0" />
      <path
         d="m 118.91361,62.311797 q 0,-0.640788 0.44442,-1.080038 0.44958,-0.444417 1.1007,-0.444417 0.64079,0 1.08004,0.444417 0.44442,0.43925 0.44442,1.080038 0,0.645955 -0.44442,1.090372 -0.44442,0.444418 -1.09037,0.444418 -0.64596,0 -1.09037,-0.444418 -0.44442,-0.444417 -0.44442,-1.090372 z"
         style="fill:#6aa84f;fill-opacity:1"
         id="path870"
         inkscape:connector-curvature="0" />
      <path
         d="m 126.55944,65.349541 q -0.15346,0 -0.25929,-0.03704 -0.10054,-0.04233 -0.16404,-0.111125 -0.0582,-0.06879 -0.0847,-0.164042 -0.0212,-0.09525 -0.0212,-0.206375 v -0.460375 q -0.3757,0.497417 -0.83079,0.783167 -0.45508,0.280458 -0.96837,0.280458 -0.33867,0 -0.61913,-0.116416 -0.28046,-0.121709 -0.48683,-0.375709 -0.20108,-0.254 -0.3175,-0.645583 -0.11113,-0.396875 -0.11113,-0.947208 0,-0.47625 0.10055,-0.926042 0.10054,-0.455083 0.28045,-0.851958 0.17992,-0.396875 0.42863,-0.724958 0.24871,-0.333375 0.54504,-0.566209 0.30163,-0.238125 0.635,-0.370416 0.33338,-0.132292 0.68792,-0.132292 0.33866,0 0.60854,0.116417 0.27517,0.111125 0.48154,0.296333 l 0.34925,-2.76225 h 1.60867 l -0.98425,7.921625 z m -1.67217,-1.164167 q 0.16934,0 0.34925,-0.127 0.18521,-0.127 0.35455,-0.34925 0.17462,-0.22225 0.32279,-0.518583 0.14816,-0.301625 0.254,-0.645584 l 0.16933,-1.333499 q -0.15346,-0.121709 -0.34396,-0.174625 -0.18521,-0.05292 -0.35454,-0.05292 -0.28575,0 -0.52917,0.1905 -0.23812,0.1905 -0.41275,0.502708 -0.17462,0.306917 -0.27516,0.703792 -0.0953,0.396875 -0.0953,0.809625 0,0.523875 0.15346,0.762 0.15345,0.232833 0.40745,0.232833 z"
         style="font-style:italic;font-variant:normal;font-weight:900;font-stretch:normal;font-family:Lato;-inkscape-font-specification:'Lato Heavy Italic'"
         id="path872"
         inkscape:connector-curvature="0" />
    </g>
  </g>
</svg>
