<?xml version="1.0" encoding="UTF-8" standalone="no"?>
<!-- Created with Inkscape (http://www.inkscape.org/) -->

<svg
   xmlns:dc="http://purl.org/dc/elements/1.1/"
   xmlns:cc="http://creativecommons.org/ns#"
   xmlns:rdf="http://www.w3.org/1999/02/22-rdf-syntax-ns#"
   xmlns:svg="http://www.w3.org/2000/svg"
   xmlns="http://www.w3.org/2000/svg"
   xmlns:sodipodi="http://sodipodi.sourceforge.net/DTD/sodipodi-0.dtd"
   xmlns:inkscape="http://www.inkscape.org/namespaces/inkscape"
   width="50mm"
   height="10mm"
   viewBox="0 0 50 10"
   version="1.1"
   id="svg8"
   inkscape:version="0.92.3 (unknown)"
   sodipodi:docname="tear-down-logo-curves.svg">
  <defs
     id="defs2" />
  <sodipodi:namedview
     id="base"
     pagecolor="#ffffff"
     bordercolor="#666666"
     borderopacity="1.0"
     inkscape:pageopacity="0.0"
     inkscape:pageshadow="2"
     inkscape:zoom="2.8"
     inkscape:cx="215.73813"
     inkscape:cy="-19.835961"
     inkscape:document-units="mm"
     inkscape:current-layer="text817"
     showgrid="false"
     showguides="false"
     inkscape:window-width="1865"
     inkscape:window-height="1025"
     inkscape:window-x="55"
     inkscape:window-y="27"
     inkscape:window-maximized="1"
     fit-margin-top="0"
     fit-margin-left="0"
     fit-margin-right="0"
     fit-margin-bottom="0" />
  <metadata
     id="metadata5">
    <rdf:RDF>
      <cc:Work
         rdf:about="">
        <dc:format>image/svg+xml</dc:format>
        <dc:type
           rdf:resource="http://purl.org/dc/dcmitype/StillImage" />
        <dc:title></dc:title>
      </cc:Work>
    </rdf:RDF>
  </metadata>
  <g
     inkscape:label="Layer 1"
     inkscape:groupmode="layer"
     id="layer1"
     transform="translate(-98.757353,-56.431064)">
    <g
       aria-label="tear•down"
       style="font-style:normal;font-weight:normal;font-size:10.58333302px;line-height:1.25;font-family:sans-serif;letter-spacing:0px;word-spacing:0px;fill:#000000;fill-opacity:1;stroke:none;stroke-width:0.26458332"
       id="text817">
      <path
         d="m 100.00851,64.164207 q 0,-0.03704 0,-0.08996 0,-0.05292 0.005,-0.148167 0.0106,-0.100541 0.0265,-0.259291 0.0212,-0.164042 0.0529,-0.428625 l 0.28046,-2.243667 h -0.439209 q -0.100542,0 -0.169334,-0.0635 -0.06879,-0.06879 -0.06879,-0.201083 0,-0.0053 0.01058,-0.08996 0.01058,-0.08996 0.02117,-0.185209 0.01058,-0.100541 0.02117,-0.185208 0.01058,-0.08467 0.01058,-0.09525 l 0.01587,-0.142875 0.830793,-0.169333 0.46038,-1.338792 q 0.0794,-0.254 0.35983,-0.254 h 0.889 l -0.20108,1.603375 h 1.22766 l -0.13758,1.121833 h -1.22767 l -0.26458,2.153708 q -0.0265,0.216959 -0.0423,0.343959 -0.0106,0.121708 -0.0212,0.1905 -0.005,0.0635 -0.0106,0.08996 0,0.02117 0,0.02646 0,0.153459 0.0688,0.259292 0.0741,0.100542 0.22754,0.100542 0.0847,0 0.13758,-0.01588 0.0582,-0.02117 0.10055,-0.04233 0.0423,-0.02646 0.0794,-0.04233 0.037,-0.02117 0.0847,-0.02117 0.0741,0 0.11112,0.03704 0.037,0.03175 0.0688,0.105833 l 0.35984,0.777875 q -0.32809,0.238125 -0.70379,0.359834 -0.37571,0.116416 -0.75671,0.116416 -0.3175,0 -0.5715,-0.08467 -0.254,-0.08996 -0.43922,-0.254 -0.17991,-0.169334 -0.28575,-0.402167 -0.10054,-0.232833 -0.11112,-0.529167 z"
         style="font-style:italic;font-variant:normal;font-weight:900;font-stretch:normal;font-family:Lato;-inkscape-font-specification:'Lato Heavy Italic'"
         id="path862"
         inkscape:connector-curvature="0" />
      <path
         d="m 108.19191,61.211458 q 0,0.375708 -0.14817,0.687916 -0.14816,0.312208 -0.51858,0.555625 -0.36512,0.238125 -0.98954,0.407458 -0.61913,0.169334 -1.56104,0.264584 0.0106,0.560916 0.24341,0.820208 0.23813,0.259292 0.6985,0.259292 0.21696,0 0.37571,-0.03704 0.15875,-0.03704 0.27517,-0.09525 0.12171,-0.05821 0.21696,-0.121708 0.0952,-0.0635 0.17991,-0.121709 0.09,-0.05821 0.18521,-0.09525 0.0953,-0.03704 0.21696,-0.03704 0.0794,0 0.15346,0.04233 0.0741,0.03704 0.13229,0.100542 l 0.42333,0.492125 q -0.29104,0.28575 -0.5715,0.497416 -0.27516,0.206375 -0.5715,0.343959 -0.29104,0.132291 -0.62441,0.195791 -0.32809,0.0635 -0.71967,0.0635 -0.48683,0 -0.89429,-0.164041 -0.40746,-0.169334 -0.70379,-0.470959 -0.29104,-0.306916 -0.45509,-0.735541 -0.15875,-0.428625 -0.15875,-0.9525 0,-0.439209 0.0953,-0.85725 0.10055,-0.418042 0.28046,-0.783167 0.18521,-0.370416 0.44979,-0.677333 0.26459,-0.312208 0.59267,-0.534458 0.33338,-0.22225 0.72496,-0.343959 0.39687,-0.127 0.84137,-0.127 0.43921,0 0.77788,0.127 0.34396,0.127 0.57679,0.333375 0.23283,0.201084 0.35454,0.455084 0.12171,0.254 0.12171,0.508 z m -1.92617,-0.3175 q -0.40745,0 -0.71437,0.328083 -0.30692,0.322791 -0.46038,0.889 0.5133,-0.07937 0.8308,-0.164042 0.3175,-0.08996 0.49212,-0.1905 0.17463,-0.105833 0.23283,-0.22225 0.0635,-0.121708 0.0635,-0.259292 0,-0.137583 -0.10583,-0.259291 -0.10583,-0.121708 -0.33867,-0.121708 z"
         style="font-style:italic;font-variant:normal;font-weight:900;font-stretch:normal;font-family:Lato;-inkscape-font-specification:'Lato Heavy Italic'"
         id="path864"
         inkscape:connector-curvature="0" />
      <path
         d="m 113.03246,65.349541 h -0.87841 q -0.15346,0 -0.2593,-0.03704 -0.10054,-0.04233 -0.16404,-0.111125 -0.0582,-0.06879 -0.0847,-0.164042 -0.0212,-0.09525 -0.0212,-0.206375 v -0.391583 q -0.33867,0.465667 -0.75142,0.73025 -0.41275,0.264583 -0.91016,0.264583 -0.29634,0 -0.5715,-0.116416 -0.27517,-0.121709 -0.48684,-0.359834 -0.21166,-0.243416 -0.33866,-0.613833 -0.127,-0.375708 -0.127,-0.883708 0,-0.746125 0.26987,-1.412875 0.27517,-0.672042 0.762,-1.17475 0.49213,-0.502708 1.16417,-0.799042 0.67204,-0.296333 1.47637,-0.296333 0.39159,0 0.79375,0.05292 0.40217,0.05292 0.79375,0.1905 z m -2.413,-1.211792 q 0.17992,0 0.34925,-0.132292 0.16934,-0.137583 0.3175,-0.370416 0.15346,-0.232834 0.28046,-0.545042 0.127,-0.312208 0.21696,-0.66675 l 0.1905,-1.518708 h -0.0952 q -0.40217,0 -0.73554,0.179917 -0.32809,0.179916 -0.56621,0.492124 -0.23813,0.306917 -0.37042,0.719667 -0.127,0.407458 -0.127,0.873125 0,0.264583 0.0423,0.449792 0.0423,0.185208 0.11112,0.301625 0.0741,0.111125 0.16933,0.164041 0.10055,0.05292 0.21696,0.05292 z"
         style="font-style:italic;font-variant:normal;font-weight:900;font-stretch:normal;font-family:Lato;-inkscape-font-specification:'Lato Heavy Italic'"
         id="path866"
         inkscape:connector-curvature="0" />
      <path
         d="m 114.07277,65.349541 0.66675,-5.487458 h 0.84667 q 0.254,0 0.39687,0.121708 0.14288,0.116417 0.14288,0.386292 v 0.624416 q 0.3175,-0.560916 0.68791,-0.862541 0.37042,-0.301625 0.7673,-0.301625 0.22225,0 0.4392,0.100541 l -0.29633,1.518708 q -0.26987,-0.116416 -0.51329,-0.116416 -0.40746,0 -0.72496,0.370416 -0.31221,0.365125 -0.508,1.180042 l -0.29633,2.465917 z"
         style="font-style:italic;font-variant:normal;font-weight:900;font-stretch:normal;font-family:Lato;-inkscape-font-specification:'Lato Heavy Italic'"
         id="path868"
         inkscape:connector-curvature="0" />
      <path
         d="m 118.91361,62.311797 q 0,-0.640788 0.44442,-1.080038 0.44958,-0.444417 1.1007,-0.444417 0.64079,0 1.08004,0.444417 0.44442,0.43925 0.44442,1.080038 0,0.645955 -0.44442,1.090372 -0.44442,0.444418 -1.09037,0.444418 -0.64596,0 -1.09037,-0.444418 -0.44442,-0.444417 -0.44442,-1.090372 z"
         style="fill:#6aa84f;fill-opacity:1"
         id="path870"
         inkscape:connector-curvature="0" />
      <path
         d="m 127.08861,65.349541 q -0.15346,0 -0.25929,-0.03704 -0.10054,-0.04233 -0.16404,-0.111125 -0.0582,-0.06879 -0.0847,-0.164042 -0.0212,-0.09525 -0.0212,-0.206375 v -0.460375 q -0.3757,0.497417 -0.83079,0.783167 -0.45508,0.280458 -0.96837,0.280458 -0.33867,0 -0.61913,-0.116416 -0.28046,-0.121709 -0.48683,-0.375709 -0.20108,-0.254 -0.3175,-0.645583 -0.11113,-0.396875 -0.11113,-0.947208 0,-0.47625 0.10055,-0.926042 0.10054,-0.455083 0.28045,-0.851958 0.17992,-0.396875 0.42863,-0.724958 0.24871,-0.333375 0.54504,-0.566209 0.30163,-0.238125 0.635,-0.370416 0.33338,-0.132292 0.68792,-0.132292 0.33866,0 0.60854,0.116417 0.27517,0.111125 0.48154,0.296333 l 0.34925,-2.76225 h 1.60867 l -0.98425,7.921625 z m -1.67217,-1.164167 q 0.16934,0 0.34925,-0.127 0.18521,-0.127 0.35455,-0.34925 0.17462,-0.22225 0.32279,-0.518583 0.14816,-0.301625 0.254,-0.645584 l 0.16933,-1.333499 q -0.15346,-0.121709 -0.34396,-0.174625 -0.18521,-0.05292 -0.35454,-0.05292 -0.28575,0 -0.52917,0.1905 -0.23812,0.1905 -0.41275,0.502708 -0.17462,0.306917 -0.27516,0.703792 -0.0953,0.396875 -0.0953,0.809625 0,0.523875 0.15346,0.762 0.15345,0.232833 0.40745,0.232833 z"
         style="font-style:italic;font-variant:normal;font-weight:900;font-stretch:normal;font-family:Lato;-inkscape-font-specification:'Lato Heavy Italic'"
         id="path872"
         inkscape:connector-curvature="0" />
      <path
         d="m 131.36196,64.217124 q 0.27517,0 0.49213,-0.164042 0.21696,-0.169333 0.36512,-0.455083 0.15346,-0.291042 0.23284,-0.672042 0.0847,-0.386291 0.0847,-0.820208 0,-0.597958 -0.16404,-0.851958 -0.15875,-0.259292 -0.52387,-0.259292 -0.27517,0 -0.49213,0.169334 -0.21696,0.164041 -0.37042,0.449791 -0.14816,0.28575 -0.23283,0.672042 -0.0794,0.386291 -0.0794,0.820208 0,0.587375 0.15875,0.851958 0.16404,0.259292 0.52916,0.259292 z m -0.14816,1.217083 q -0.46038,0 -0.86255,-0.153458 -0.39687,-0.153458 -0.6932,-0.4445 -0.29105,-0.296333 -0.46038,-0.724958 -0.16404,-0.433917 -0.16404,-0.994834 0,-0.73025 0.23812,-1.338791 0.24342,-0.613833 0.65088,-1.058333 0.40746,-0.4445 0.94192,-0.693209 0.53975,-0.248708 1.13241,-0.248708 0.46038,0 0.85725,0.153458 0.39688,0.153459 0.68792,0.449792 0.29633,0.291042 0.46567,0.724958 0.16933,0.428625 0.16933,0.989542 0,0.719666 -0.24342,1.3335 -0.23812,0.608541 -0.64558,1.058333 -0.40746,0.4445 -0.94721,0.6985 -0.53446,0.248708 -1.12712,0.248708 z"
         style="font-style:italic;font-variant:normal;font-weight:900;font-stretch:normal;font-family:Lato;-inkscape-font-specification:'Lato Heavy Italic'"
         id="path874"
         inkscape:connector-curvature="0" />
      <path
         d="m 134.73358,59.862083 h 1.25942 q 0.15875,0 0.26987,0.07937 0.11113,0.07938 0.12171,0.206375 l 0.15875,2.460624 q 0,0.02117 0,0.04233 0.005,0.01588 0.005,0.03704 0.0159,0.254 0.0265,0.492125 0.0106,0.238125 0.0159,0.47625 0.0953,-0.254 0.20109,-0.513291 0.11112,-0.259292 0.21696,-0.534459 l 0.92075,-2.465916 q 0.0423,-0.121708 0.16404,-0.201083 0.127,-0.08467 0.26987,-0.08467 h 0.70909 q 0.16933,0 0.26987,0.08467 0.10583,0.07938 0.12171,0.201083 l 0.3175,2.465916 q 0.037,0.269875 0.0688,0.529167 0.037,0.259292 0.0635,0.513292 0.0741,-0.254 0.15875,-0.508 0.0847,-0.254 0.17463,-0.534459 l 0.77258,-2.460624 q 0.0423,-0.121709 0.15875,-0.201084 0.12171,-0.08467 0.26458,-0.08467 h 1.2065 l -2.23308,5.487458 h -1.28058 q -0.0953,0 -0.15875,-0.0635 -0.0582,-0.0635 -0.0847,-0.211667 l -0.40217,-2.735792 q -0.0159,-0.116416 -0.0318,-0.227541 -0.0106,-0.116417 -0.0212,-0.232834 -0.0423,0.121709 -0.09,0.238125 -0.0476,0.116417 -0.09,0.232834 l -1.04775,2.725208 q -0.11113,0.275167 -0.34925,0.275167 h -1.22767 z"
         style="font-style:italic;font-variant:normal;font-weight:900;font-stretch:normal;font-family:Lato;-inkscape-font-specification:'Lato Heavy Italic'"
         id="path876"
         inkscape:connector-curvature="0" />
      <path
         d="m 145.73876,65.349541 0.41275,-3.487209 q 0.0106,-0.08467 0.0159,-0.153458 0.005,-0.07408 0.005,-0.137583 0,-0.280459 -0.10054,-0.386292 -0.0953,-0.111125 -0.29104,-0.111125 -0.17992,0 -0.37571,0.111125 -0.19579,0.111125 -0.37571,0.312208 -0.17462,0.201084 -0.32279,0.492125 -0.14816,0.28575 -0.23283,0.635 l -0.30163,2.725209 h -1.64041 l 0.65616,-5.487458 h 0.84667 q 0.254,0 0.39688,0.121708 0.14287,0.116417 0.14287,0.386292 v 0.439208 q 0.39688,-0.529167 0.86783,-0.777875 0.47096,-0.254 0.97367,-0.254 0.30692,0 0.56092,0.111125 0.25929,0.111125 0.4445,0.328083 0.18521,0.211667 0.29104,0.523875 0.10583,0.312209 0.10583,0.719667 0,0.09525 -0.0106,0.195791 -0.005,0.100542 -0.0159,0.206375 l -0.41275,3.487209 z"
         style="font-style:italic;font-variant:normal;font-weight:900;font-stretch:normal;font-family:Lato;-inkscape-font-specification:'Lato Heavy Italic'"
         id="path878"
         inkscape:connector-curvature="0" />
    </g>
  </g>
</svg>
